<mxfile host="Electron" modified="2023-09-28T19:31:52.564Z" agent="Mozilla/5.0 (Windows NT 10.0; Win64; x64) AppleWebKit/537.36 (KHTML, like Gecko) draw.io/22.0.0 Chrome/114.0.5735.289 Electron/25.8.3 Safari/537.36" etag="MYR4f7qrHa5HPNRK5x0P" version="22.0.0" type="device">
  <diagram name="Page-1" id="rkZNH69ZYbZABoDn4leT">
    <mxGraphModel dx="350" dy="207" grid="1" gridSize="10" guides="1" tooltips="1" connect="1" arrows="1" fold="1" page="1" pageScale="1" pageWidth="850" pageHeight="1100" math="0" shadow="0">
      <root>
        <mxCell id="0" />
        <mxCell id="1" parent="0" />
        <mxCell id="nzP6fsCWfK1H_bQ6tM55-2" value="&lt;font style=&quot;font-size: 8px;&quot;&gt;Desinibição&lt;/font&gt;" style="text;html=1;strokeColor=none;fillColor=none;align=center;verticalAlign=middle;whiteSpace=wrap;rounded=0;" parent="1" vertex="1">
          <mxGeometry x="345" y="220" width="60" height="30" as="geometry" />
        </mxCell>
        <mxCell id="nzP6fsCWfK1H_bQ6tM55-3" value="&lt;font style=&quot;font-size: 8px;&quot;&gt;Simpatia&lt;/font&gt;" style="text;html=1;strokeColor=none;fillColor=none;align=center;verticalAlign=middle;whiteSpace=wrap;rounded=0;" parent="1" vertex="1">
          <mxGeometry x="310" y="340" width="60" height="30" as="geometry" />
        </mxCell>
        <mxCell id="nzP6fsCWfK1H_bQ6tM55-4" value="&lt;font style=&quot;font-size: 8px;&quot;&gt;Inocência&lt;/font&gt;" style="text;html=1;strokeColor=none;fillColor=none;align=center;verticalAlign=middle;whiteSpace=wrap;rounded=0;" parent="1" vertex="1">
          <mxGeometry x="270" y="260" width="60" height="30" as="geometry" />
        </mxCell>
        <mxCell id="nzP6fsCWfK1H_bQ6tM55-5" value="&lt;font style=&quot;font-size: 8px;&quot;&gt;Pacificidade&lt;/font&gt;" style="text;html=1;strokeColor=none;fillColor=none;align=center;verticalAlign=middle;whiteSpace=wrap;rounded=0;" parent="1" vertex="1">
          <mxGeometry x="425" y="260" width="60" height="30" as="geometry" />
        </mxCell>
        <mxCell id="f4HXycsdBSTEN4oh_WEF-2" value="" style="whiteSpace=wrap;html=1;shape=mxgraph.basic.pentagon" vertex="1" parent="1">
          <mxGeometry x="325" y="250" width="100" height="90" as="geometry" />
        </mxCell>
        <mxCell id="f4HXycsdBSTEN4oh_WEF-3" value="&lt;font style=&quot;font-size: 8px;&quot;&gt;Tolice&lt;/font&gt;" style="text;html=1;strokeColor=none;fillColor=none;align=center;verticalAlign=middle;whiteSpace=wrap;rounded=0;" vertex="1" parent="1">
          <mxGeometry x="390" y="340" width="60" height="30" as="geometry" />
        </mxCell>
      </root>
    </mxGraphModel>
  </diagram>
</mxfile>
